<svg version="1.1" id="Layer_1" xmlns="http://www.w3.org/2000/svg" xmlns:xlink="http://www.w3.org/1999/xlink" x="0px" y="0px"
	 width="100%" viewBox="0 0 496 496" enable-background="new 0 0 496 496" xml:space="preserve">
<path fill="#000000" opacity="1.000000" stroke="none" 
	d="
M172.818802,382.117462 
	C167.318466,375.479614 165.458130,368.123230 164.178757,359.949188 
	C160.148987,334.202576 172.390198,315.131744 188.883591,298.170197 
	C200.444122,286.281525 221.273026,291.177246 229.944839,299.702240 
	C233.492203,303.189545 232.821045,307.999176 231.580612,312.440918 
	C230.250595,317.203461 227.530533,320.903748 222.458939,322.059204 
	C220.007065,322.617828 218.631439,321.007233 217.536499,318.819977 
	C212.794479,309.347351 194.241394,306.191132 187.338730,314.029510 
	C184.612122,317.125763 182.111038,321.549530 181.879105,325.507843 
	C181.096588,338.862000 179.502625,352.562714 188.589310,364.366730 
	C198.791870,377.620361 214.378662,385.194092 231.776672,382.195740 
	C236.919998,381.309326 242.158661,381.018005 247.158951,378.419708 
	C257.606293,372.990936 262.932861,363.526001 268.400818,354.022003 
	C273.560059,345.054657 276.099762,335.178558 276.553619,325.004669 
	C276.958435,315.930206 276.272125,306.786041 275.712769,297.694458 
	C274.835724,283.438080 273.530945,269.208069 272.647339,254.952011 
	C271.755310,240.561142 271.177826,226.150970 270.406494,211.752258 
	C270.275360,209.303757 269.862366,206.870346 269.535309,204.047760 
	C259.403748,205.677826 250.755386,210.504776 241.484543,213.389618 
	C238.472244,214.326965 235.557526,215.651993 232.494385,216.332718 
	C228.836166,217.145706 226.998779,214.848373 228.382004,211.509766 
	C230.885986,205.466003 235.343216,201.010651 240.492203,197.237549 
	C243.444092,195.074478 247.244492,196.070343 250.576355,195.514572 
	C256.041748,194.602921 260.844513,191.731857 266.348175,191.200958 
	C268.918518,190.953033 269.855774,189.012527 269.736084,186.499817 
	C269.108337,173.322144 270.745850,160.254959 271.692596,147.154190 
	C271.704590,146.988144 271.698700,146.820847 271.708130,146.654526 
	C272.329865,135.674927 272.294342,134.980026 261.177216,135.548737 
	C243.184647,136.469193 225.980881,131.691788 208.410873,129.616989 
	C194.702179,127.998146 180.927994,126.187881 167.182327,128.523285 
	C158.634430,129.975571 152.178543,135.577591 146.799667,142.030182 
	C144.257019,145.080368 145.468704,149.429306 145.288910,153.223160 
	C144.893311,161.570755 147.502090,168.904938 152.782303,175.349823 
	C155.173340,178.268265 158.305283,179.382996 161.950623,179.737259 
	C166.554230,180.184631 167.894775,182.372482 166.029755,186.438919 
	C164.240417,190.340256 162.964966,194.511841 159.789597,197.713120 
	C155.976486,201.557419 146.034515,201.745071 142.286438,197.823410 
	C128.787918,183.699738 126.289772,167.505646 133.220047,149.540115 
	C139.321793,133.722412 149.950134,121.084183 164.488983,113.298897 
	C175.157669,107.586006 187.377060,104.043442 200.461441,107.167168 
	C206.641937,108.642670 213.273117,108.610870 219.694885,109.499939 
	C231.214401,111.094765 242.613144,113.345825 254.094040,115.091492 
	C263.231842,116.480881 272.439331,117.703499 281.788483,116.825104 
	C284.559570,116.564743 286.022919,115.174393 287.309998,113.201134 
	C293.804749,103.244049 302.142059,95.173492 311.420898,87.741455 
	C319.808472,81.023300 328.567749,76.398880 339.399933,75.192802 
	C351.737366,73.819115 363.713928,80.594460 367.564026,92.543358 
	C369.043335,97.134346 365.348816,100.200722 362.686005,103.182655 
	C361.485931,104.526527 360.251984,105.769348 359.225861,107.300880 
	C351.921173,118.203316 341.879578,125.255592 329.303131,129.112625 
	C318.284515,132.491898 306.883575,133.452393 295.621216,135.275284 
	C291.522247,135.938721 289.713348,138.260086 289.438995,141.869812 
	C288.508698,154.110657 288.054565,166.375000 288.295593,178.657745 
	C288.351440,181.503189 288.906799,182.905914 292.462311,182.028229 
	C301.289276,179.849289 310.036377,177.561066 318.354706,173.785873 
	C320.946106,172.609772 323.845734,171.864517 326.037445,174.725891 
	C328.328705,177.717224 325.855927,179.840988 324.256622,181.718018 
	C320.474792,186.156540 317.125122,190.852463 314.010071,195.778076 
	C311.873962,199.155792 307.972504,200.737915 304.429413,201.677902 
	C300.730377,202.659256 302.387024,199.058334 302.101990,197.261856 
	C298.669769,196.364990 295.266205,196.832840 291.842102,197.225372 
	C289.364471,197.509399 288.599487,198.577271 288.670135,201.173462 
	C289.017487,213.941559 290.198273,226.660141 290.574310,239.437820 
	C291.017517,254.495987 293.286072,269.491119 294.350525,284.542755 
	C295.584290,301.988617 295.219666,319.415710 290.092377,336.318054 
	C287.766968,343.983917 283.191162,350.750549 278.774292,357.314484 
	C271.544006,368.059387 263.534637,378.386932 253.653687,386.851990 
	C243.178253,395.826385 231.556107,403.178589 217.083878,403.126892 
	C202.264648,403.074005 188.347733,400.098267 178.183472,387.841095 
	C176.593384,385.923584 174.754562,384.212402 172.818802,382.117462 
M302.699188,117.651123 
	C316.296600,115.793541 330.111206,115.260544 343.262817,110.716026 
	C348.001587,109.078552 349.466034,105.620491 346.314880,101.681168 
	C342.708832,97.173225 338.293427,94.103394 332.004120,93.887672 
	C319.909668,93.472824 311.093414,99.294113 303.744690,107.975143 
	C301.509277,110.615814 297.991150,112.661674 298.106415,116.855614 
	C299.206238,118.122437 300.627716,117.479347 302.699188,117.651123 
z"/>
</svg>